<svg width="64" height="64" viewBox="0 0 64 64" fill="none" xmlns="http://www.w3.org/2000/svg">
<circle cx="32" cy="32" r="31.5" stroke="white"/>
<path fill-rule="evenodd" clip-rule="evenodd" d="M31.9998 26.9C33.6707 26.9 35.2731 26.2363 36.4546 25.0548C37.6361 23.8733 38.2998 22.2709 38.2998 20.6C38.2998 18.9291 37.6361 17.3267 36.4546 16.1452C35.2731 14.9637 33.6707 14.3 31.9998 14.3C30.3289 14.3 28.7265 14.9637 27.545 16.1452C26.3636 17.3267 25.6998 18.9291 25.6998 20.6C25.6998 22.2709 26.3636 23.8733 27.545 25.0548C28.7265 26.2363 30.3289 26.9 31.9998 26.9V26.9ZM17.2998 45.8C17.2998 43.8696 17.68 41.958 18.4188 40.1746C19.1575 38.3911 20.2403 36.7706 21.6053 35.4055C22.9704 34.0405 24.5909 32.9577 26.3744 32.219C28.1578 31.4802 30.0694 31.1 31.9998 31.1C33.9302 31.1 35.8418 31.4802 37.6253 32.219C39.4087 32.9577 41.0293 34.0405 42.3943 35.4055C43.7593 36.7706 44.8421 38.3911 45.5808 40.1746C46.3196 41.958 46.6998 43.8696 46.6998 45.8H17.2998Z" fill="white"/>
</svg>
