<svg width="674" height="467" viewBox="0 0 674 467" fill="none" xmlns="http://www.w3.org/2000/svg">
<path d="M506.881 60.4298H492.558H429.698V165.177L432.085 165.812V62.8115H492.558V215.637H494.945V62.8115H504.494V215.637H506.881V62.8115H580.482V439.12H506.881V228.34H504.494V439.12H494.945V228.34H492.558V439.12H432.085V392.153V329.872V228.34H429.698V331.459V393.653V441.502H492.558H506.881H582.869V60.4298H506.881Z" fill="white"/>
<path d="M546.665 120.369C534.619 120.369 525.182 141.805 525.182 169.194C525.182 196.584 534.619 218.019 546.665 218.019C558.712 218.019 568.149 196.584 568.149 169.194C568.149 141.805 558.712 120.369 546.665 120.369ZM546.665 215.637C536.321 215.637 527.569 194.369 527.569 169.194C527.569 144.02 536.321 122.751 546.665 122.751C557.009 122.751 565.762 144.02 565.762 169.194C565.762 194.369 557.009 215.637 546.665 215.637Z" fill="white"/>
<path d="M546.665 141.011C539.552 141.011 533.934 153.388 533.934 169.194C533.934 185.001 539.504 197.378 546.665 197.378C553.827 197.378 559.397 185.001 559.397 169.194C559.397 153.388 553.779 141.011 546.665 141.011ZM546.665 194.996C541.692 194.996 536.321 184.628 536.321 169.194C536.321 153.761 541.653 143.392 546.665 143.392C551.678 143.392 557.009 153.761 557.009 169.194C557.009 184.628 551.639 194.996 546.665 194.996Z" fill="white"/>
<path d="M546.665 291.852C534.619 291.852 525.182 313.287 525.182 340.677C525.182 368.066 534.619 389.501 546.665 389.501C558.712 389.501 568.149 368.066 568.149 340.677C568.149 313.287 558.712 291.852 546.665 291.852ZM546.665 387.12C536.321 387.12 527.569 365.851 527.569 340.677C527.569 315.502 536.321 294.233 546.665 294.233C557.009 294.233 565.762 315.502 565.762 340.677C565.762 365.851 557.009 387.12 546.665 387.12Z" fill="white"/>
<path d="M546.665 312.493C539.552 312.493 533.934 324.87 533.934 340.677C533.934 356.483 539.504 368.86 546.665 368.86C553.827 368.86 559.397 356.483 559.397 340.677C559.397 324.87 553.779 312.493 546.665 312.493ZM546.665 366.478C541.692 366.478 536.321 356.11 536.321 340.677C536.321 325.243 541.653 314.875 546.665 314.875C551.678 314.875 557.009 325.243 557.009 340.677C557.009 356.11 551.639 366.478 546.665 366.478Z" fill="white"/>
<path d="M515.235 77.1018V215.637H517.623V79.4835H573.321V424.036H517.623V228.34H515.235V426.418H575.708V77.1018H515.235Z" fill="white"/>
<path d="M467.239 185.064L462.696 198.965L460.945 204.277L451.333 198.965L438.34 191.773L442.644 198.965L445.366 203.491L436.899 198.965L432.086 196.393L429.698 195.115L425.831 193.043L424.765 192.471L425.887 190.375L427.073 191.003L429.698 192.416L432.086 193.686L438.889 197.322L432.086 186.009L431.727 185.398L432.086 185.596L456.251 198.965L459.577 200.807L460.174 198.965L464.232 186.588L435.467 177.252L433.717 176.681L434.441 174.41L436.748 175.148L467.239 185.064Z" fill="white"/>
<path d="M352.779 148.307C348.729 139.574 338.456 135.66 329.902 139.574C321.277 143.682 317.614 153.983 321.715 162.597C324.552 168.799 330.739 172.795 337.573 172.838C339.994 172.84 342.386 172.314 344.583 171.298C350.633 168.467 354.477 162.381 354.426 155.714C354.418 153.155 353.856 150.628 352.779 148.307ZM343.588 169.162C336.096 172.255 327.492 168.899 324.088 161.557C320.683 154.214 323.691 145.499 330.905 141.805C332.79 140.932 334.843 140.48 336.92 140.479C342.822 140.522 348.162 143.979 350.606 149.339C354.134 156.748 350.997 165.608 343.588 169.162Z" fill="white"/>
<path d="M264.194 282.428C260.761 289.125 256.352 295.279 251.113 300.688C249.434 302.449 247.103 303.442 244.668 303.435H244.246C244.134 303.435 244.015 303.435 243.904 303.435C243.095 303.372 242.295 303.225 241.517 302.998V300.497C242.287 300.775 243.089 300.956 243.904 301.037C244.051 301.058 244.2 301.071 244.349 301.077C246.26 301.178 248.119 300.432 249.426 299.036C254.028 294.275 257.972 288.922 261.154 283.119C261.735 282.071 262.046 281.444 262.053 281.42L263.709 282.214L264.194 282.428Z" fill="#0364D7"/>
<path d="M258.21 311.628L256.126 310.469C259.595 304.26 262.762 301.434 265.809 301.823C269.636 302.307 271.156 307.682 271.315 308.293L269.008 308.897L270.162 308.595L269.008 308.897C268.706 307.754 267.417 304.419 265.507 304.181C264.409 304.046 262.014 304.832 258.21 311.628Z" fill="#0364D7"/>
<path d="M359.622 306.523C351.505 303.189 349.811 297.433 348.02 291.351C346.66 286.755 345.259 281.999 340.931 277.681C339.188 275.942 338.122 276.307 337.748 276.426C332.934 278.085 329.107 295.662 327.818 306.356L325.431 306.07C325.789 303.093 329.162 276.871 336.952 274.179C338.241 273.735 340.262 273.687 342.578 275.997C347.352 280.761 348.896 286.024 350.264 290.677C351.967 296.44 353.447 301.418 360.489 304.316L359.622 306.523Z" fill="#0364D7"/>
<path d="M357.505 272.917C352.548 272.917 346.174 272.123 343.182 268.487C341.201 266.106 340.891 262.93 342.267 258.96C347.909 242.884 356.709 237.152 357.075 236.914L358.364 238.922C358.277 238.978 349.866 244.48 344.527 259.746C343.429 262.874 343.588 265.232 345.02 266.947C348.649 271.321 359.884 270.694 363.91 270.123L364.26 272.504C362.021 272.798 359.764 272.936 357.505 272.917Z" fill="#0364D7"/>
<path d="M312.795 238.025C312.898 241.9 310.686 245.282 306.199 248.076C288.494 259.119 275.723 261.247 273.503 261.572L273.177 261.612L272.923 259.23L273.448 259.151C276.089 258.746 288.415 256.372 304.941 246.075C308.649 243.757 310.511 241.074 310.408 238.136C310.344 235.612 309.039 233.103 307.161 230.721C306.499 229.89 305.793 229.095 305.045 228.34H308.228C308.889 229.095 309.503 229.891 310.066 230.721C311.656 232.846 312.603 235.381 312.795 238.025Z" fill="#0364D7"/>
<path d="M279.01 321.012V318.63C279.161 318.63 294.056 318.503 303.398 316.947C305.315 316.629 306.581 315.78 307.217 314.359C309.278 309.857 305.626 299.568 297.008 285.397C294.295 280.944 293.826 277.069 295.632 273.862C300.406 265.423 319.503 265.328 320.298 265.328V267.709C320.115 267.709 301.783 267.804 297.709 275.029C296.356 277.411 296.809 280.499 299.037 284.159C308.371 299.465 311.856 309.961 309.381 315.351C308.395 317.519 306.509 318.844 303.812 319.321C294.247 320.885 279.63 321.012 279.01 321.012Z" fill="#0364D7"/>
<path d="M298.552 358.539C297.699 358.534 296.853 358.392 296.046 358.119C286.426 354.943 281.62 351.458 281.421 351.315L282.829 349.394C282.877 349.394 287.603 352.791 296.793 355.864C298.233 356.36 299.815 356.221 301.146 355.483C306.907 352.474 310.36 340.899 310.392 340.78L312.683 341.447C312.532 341.963 308.92 354.109 302.26 357.587C301.121 358.203 299.848 358.53 298.552 358.539Z" fill="#0364D7"/>
<path d="M287.826 389.962L287.508 387.58L287.667 388.763L287.508 387.58C287.953 387.525 298.409 385.992 298.409 376.855C298.409 373.354 299.435 370.845 301.456 369.392C304.742 367.01 309.334 368.511 309.525 368.598L308.777 370.853C308.777 370.853 305.132 369.694 302.849 371.345C301.488 372.329 300.796 374.187 300.796 376.902C300.796 388.104 287.953 389.938 287.826 389.962Z" fill="#0364D7"/>
<path d="M432.085 163.343L429.698 162.708L396.494 153.832L357.123 115.653L355.906 114.479L355.11 117.988L356.375 118.265L357.171 119.02L395.062 155.769L395.285 155.984L429.698 165.177L432.085 165.812L438.594 167.551L432.085 178.221L429.698 182.135L419.426 198.965L417.763 201.696L413.235 198.965L380.747 179.388L361.547 157.381C362.223 151.411 362.844 145.369 363.329 139.28L360.942 139.089C360.051 150.204 358.714 161.192 357.425 171.83C356.343 180.674 355.237 189.796 354.386 198.965C354.386 198.965 354.386 199.021 354.386 199.045L354.107 198.965C344.79 196.449 303.684 185.294 281.047 178.967C280.299 178.745 279.503 178.538 278.699 178.332C277.048 177.949 275.426 177.45 273.846 176.839L316.193 125.68L313.726 125.625C312.925 125.78 312.217 126.242 311.753 126.911L303.907 131.484L315.381 116.876L311.522 110.747L310.241 108.715L305.18 100.688L304.424 99.4897L301.003 94.0515L299.698 91.9873L296.515 86.9143L245.519 155.023L267.894 177.347L299.897 136.605L307.997 131.841L270.138 177.586L271.355 178.324C273.485 179.408 275.748 180.209 278.087 180.706C278.882 180.912 279.63 181.111 280.378 181.325C286.219 182.96 293.292 184.913 300.732 186.962L300.119 198.965L299.801 205.317H302.188L302.515 198.965L303.103 187.533C318.341 191.725 334.708 196.179 344.997 198.965L347.75 199.712L347.973 205.317H350.36L350.169 200.371L355.142 201.712L356.51 202.077L356.638 200.664C356.685 200.101 356.741 199.529 356.797 198.965C357.632 189.907 358.73 180.872 359.797 172.116C360.258 168.321 360.728 164.47 361.181 160.596L379.188 181.238L408.628 198.973L418.559 204.967L422.219 198.965L425.831 193.043L427.073 191.026L429.698 186.723L432.085 182.809L435.467 177.252L436.74 175.156L442.31 166.074L432.085 163.343ZM267.663 173.751L248.662 154.793L296.332 91.114L312.469 116.725L298.281 134.779L298.202 134.826L267.663 173.751Z" fill="white"/>
<path d="M350.447 207.524L348.068 207.666L348.076 207.897L337.326 208.294L337.239 208.302H337.207L301.966 209.612L302.085 207.301H299.698L299.586 209.461L299.451 212.096L300.287 212.065L323.012 211.215L324.333 211.168L325.24 211.136H325.264L336.658 210.707L336.825 210.699H336.889L337.048 210.691L350.551 210.191L350.543 209.905L350.447 207.524Z" fill="white"/>
<path d="M317.649 309.389L373.156 307.253L357.728 230.721L357.242 228.34H354.808L355.285 230.721L356.606 237.231L357.131 239.851L363.25 270.178L363.719 272.512L370.268 304.967L360.091 305.356L357.417 305.459L317.919 306.976L324.945 244.972L332.735 244.265L332.512 241.884L322.797 242.773L320.243 265.304L319.972 267.685L311.641 341.145L311.116 345.758L308.562 368.304L308.291 370.686L303.302 414.676L300.915 415.017H300.852L290.746 415.605L287.85 389.906L287.579 387.525L283.657 352.696L283.314 349.703L280.108 321.004L279.845 318.622L273.742 264.859C273.615 263.74 273.535 262.628 273.488 261.517C273.44 260.723 273.424 259.929 273.432 259.135C273.482 249.001 276.55 239.111 282.248 230.721C282.789 229.928 283.362 229.134 283.959 228.34H280.999L280.458 229.134C280.307 229.356 280.156 229.57 280.012 229.793L279.694 230.269C279.591 230.428 279.487 230.586 279.392 230.745C272.873 240.971 270.039 253.106 271.355 265.153L272.684 276.934L272.557 276.569L243.904 286.58L241.517 287.414V289.93L243.904 289.097L261.154 283.119L263.709 282.23L272.947 278.967L276.344 309.135L259.157 310.048L256.301 310.199L243.912 310.858L241.525 310.985V313.366L243.912 313.239L276.623 311.509L288.494 416.812L287.516 416.947L287.969 445.352L303.334 445.106L304.018 438.818L311.18 444.979L351.243 444.328L305.57 415.7L317.649 309.389ZM343.182 442.081L312.063 442.582L302.133 434.063L301.186 442.796L290.324 442.971L289.935 419.05L301.122 417.463H301.17L303.692 417.32L343.182 442.081Z" fill="white"/>
<path d="M483.408 207.301V213.652H277.323V207.301H348.052L348.068 207.666L350.447 207.524L350.439 207.301H483.408Z" fill="white"/>
<path d="M480.623 202.141C480.623 203.895 479.198 205.317 477.44 205.317H390.709C388.952 205.317 387.527 203.895 387.527 202.141C387.527 200.387 388.952 198.965 390.709 198.965H413.235L417.763 201.696L419.426 198.965H456.243L459.569 200.807L460.174 198.965H477.44C479.198 198.965 480.623 200.387 480.623 202.141Z" fill="white"/>
<path d="M371.613 202.141C371.613 203.895 370.188 205.317 368.43 205.317H281.699C279.941 205.317 278.516 203.895 278.516 202.141C278.516 200.387 279.941 198.965 281.699 198.965H368.43C370.188 198.965 371.613 200.387 371.613 202.141Z" fill="white"/>
<path d="M210.572 449.52C70.872 449.52 69.4318 448.798 68.7236 448.448L69.7819 446.313C69.7288 446.285 69.6727 446.264 69.6148 446.249C76.9591 447.837 427.558 446.916 611.912 446.194V448.575C610.568 448.575 475.777 449.107 342.172 449.369C288.423 449.473 245.233 449.52 210.572 449.52Z" fill="white"/>
<path d="M281.978 59.9138C278.882 50.3156 273.106 32.6513 272.779 31.651L271.65 32.0241L270.512 32.3893C272.382 38.1054 276.145 49.6328 278.763 57.7227C278.371 57.5677 277.966 57.4455 277.554 57.3575C273.537 56.4878 269.483 58.6653 267.999 62.4899C266.516 66.3144 268.044 70.6475 271.6 72.7028C275.157 74.7581 279.684 73.9238 282.271 70.7363C284.857 67.5489 284.733 62.9572 281.978 59.9138Z" fill="white"/>
<path d="M420.15 106.19C418.447 99.8946 415.79 90.1852 414.047 83.826L414.66 83.6593L412.551 75.9982L380.333 84.8343L382.442 92.4954L383.986 92.0667C385.307 98.021 386.938 105.372 388.195 111.073C387.817 110.884 387.426 110.722 387.025 110.588C383.118 109.345 378.885 111.124 377.047 114.782C375.209 118.44 376.312 122.889 379.648 125.269C382.984 127.649 387.56 127.253 390.435 124.335C393.31 121.417 393.629 116.845 391.187 113.558C389.826 107.357 387.718 97.8701 386.293 91.4395L411.755 84.4532C413.395 90.4392 415.463 98.021 417.047 103.848C416.661 103.682 416.265 103.541 415.861 103.427C411.894 102.37 407.746 104.352 406.085 108.098C404.423 111.844 405.741 116.24 409.193 118.459C412.644 120.679 417.201 120.061 419.934 117.003C422.666 113.945 422.762 109.358 420.158 106.19H420.15Z" fill="white"/>
<path d="M346.787 42.3051C346.787 42.2337 346.723 42.0908 346.66 41.8923C346.605 40.7065 346.207 39.562 345.514 38.5976C343.922 34.0803 341.241 26.4827 339.482 21.5367L339.65 21.4811L337.66 15.9238L314.203 24.228L316.192 29.7853L316.988 29.4836C318.404 34.1756 319.916 39.2248 321.086 43.1387C320.912 43.0738 320.734 43.0208 320.553 42.9799C317.223 42.1881 313.881 44.2386 313.086 47.5603C312.292 50.882 314.346 54.2175 317.675 55.011C321.004 55.8046 324.348 53.7559 325.144 50.4347C325.219 50.111 325.267 49.7818 325.287 49.4502H325.423L325.311 49.0374C325.313 47.8515 324.971 46.6905 324.324 45.6951C323.004 41.2095 320.76 33.7469 319.24 28.7215L337.199 22.3703C338.886 27.1337 340.716 32.2861 342.116 36.2715C341.941 36.2238 341.758 36.1762 341.575 36.1445C338.211 35.5154 334.973 37.7255 334.341 41.0816C333.71 44.4376 335.923 47.6694 339.287 48.3009C342.65 48.9324 345.89 46.7246 346.524 43.3689C346.583 43.0413 346.615 42.7094 346.62 42.3766L346.787 42.3051Z" fill="white"/>
<path d="M405.692 36.4064C402.692 27.1336 396.43 8.09593 396.088 7.0321L394.958 7.40524L393.82 7.77837C395.754 13.6612 399.717 25.7126 402.35 33.8183C401.712 33.5205 401.042 33.2967 400.353 33.1514C395.82 32.1865 391.251 34.6261 389.541 38.9243C387.83 43.2224 389.478 48.1246 393.44 50.5246C397.402 52.9247 402.522 52.122 405.555 48.6251C408.588 45.1283 408.649 39.9581 405.7 36.3905L405.692 36.4064ZM405.318 43.9484C404.544 47.6279 401.044 50.0789 397.312 49.555C393.581 49.0311 390.894 45.7116 391.168 41.9617C391.441 38.2118 394.58 35.3147 398.348 35.3346C398.851 35.3368 399.352 35.39 399.844 35.4934C401.282 35.7964 402.588 36.5436 403.576 37.629C404.637 38.7686 405.294 40.2246 405.446 41.7732C405.521 42.5004 405.478 43.235 405.318 43.9484V43.9484Z" fill="white"/>
<path d="M461.128 422.845C445.214 424.433 426.913 429.196 433.279 418.082C439.645 406.967 471.472 383.15 450.784 384.738C433.024 386.104 419.967 396.821 415.615 404.847C411.445 391.804 406.949 371.139 406.225 341.478C411.509 339.287 447.363 323.87 439.247 312.104C431.29 300.6 410.124 334.262 406.201 340.685C406.018 332.404 406.13 323.425 406.623 313.732L404.236 313.605C403.934 319.628 403.767 325.373 403.735 330.84C399.199 324.552 383.349 304.888 365.247 308.905C345.633 313.255 394.99 329.546 403.727 332.309C403.727 337.755 403.825 342.934 404.021 347.845C398.969 344.122 376.458 328.252 370.817 336.691C365.04 345.337 397.871 348.092 404.053 348.536C404.268 353.546 404.602 358.285 405.016 362.747C399.605 359.698 381.901 350.656 373.188 357.333C364.006 364.382 397.465 363.922 405.088 363.731C405.708 370.186 406.512 376.061 407.419 381.388C400.823 379.173 375.058 371.067 371.613 377.974C368.08 385.024 400.305 382.658 407.546 382.039C409.046 391.021 411.271 399.867 414.198 408.491C414.195 408.507 414.195 408.523 414.198 408.539C412.607 416.478 403.058 404.57 393.51 406.157C383.962 407.745 386.349 415.684 393.51 422.829C400.671 429.974 370.435 427.593 387.94 441.883H459.553C459.553 441.883 477.042 421.257 461.128 422.845Z" fill="white"/>
<path d="M407.841 357.023C407.841 357.023 444.021 347.028 441.634 336.707C439.247 326.386 407.841 357.023 407.841 357.023Z" fill="white"/>
<path d="M423.333 291.455C416.172 282.722 409.806 315.272 407.841 318.543C407.841 318.543 430.494 300.188 423.333 291.455Z" fill="white"/>
<path d="M437.655 357.348C426.516 351.791 409.543 374.568 409.543 374.568C409.543 374.568 448.795 362.906 437.655 357.348Z" fill="white"/>
<path d="M167.915 61.2238H90.7325V442.296H243.904V61.2238H167.915ZM93.1196 439.914V63.6055H153.592V439.914H93.1196ZM155.979 439.914V63.6055H165.528V439.914H155.979ZM241.517 310.953V439.914H167.915V63.6055H241.517V310.953Z" fill="white"/>
<path d="M207.7 121.163C195.653 121.163 186.216 142.599 186.216 169.988C186.216 197.378 195.653 218.813 207.7 218.813C209.666 218.796 211.591 218.247 213.269 217.225C214.998 216.171 216.532 214.828 217.805 213.256C224.632 205.166 229.183 189.01 229.183 169.988C229.183 142.599 219.746 121.163 207.7 121.163ZM214.511 213.256C214.116 213.635 213.702 213.992 213.269 214.327C211.702 215.633 209.74 216.374 207.7 216.431C197.356 216.431 188.603 195.163 188.603 169.988C188.603 144.813 197.356 123.545 207.7 123.545C218.044 123.545 226.796 144.813 226.796 169.988C226.796 189.359 221.616 206.42 214.511 213.256Z" fill="white"/>
<path d="M207.7 141.805C200.586 141.805 195.008 154.181 195.008 169.988C195.008 185.795 200.578 198.171 207.7 198.171C214.821 198.171 220.431 185.795 220.431 169.988C220.431 154.181 214.813 141.805 207.7 141.805ZM207.7 195.79C202.727 195.79 197.395 185.421 197.395 169.988C197.395 154.555 202.727 144.186 207.7 144.186C212.673 144.186 218.044 154.555 218.044 169.988C218.044 185.421 212.673 195.79 207.7 195.79Z" fill="white"/>
<path d="M225.125 312.541C224.751 311.374 224.33 310.254 223.948 309.175C223.417 307.825 222.866 306.549 222.293 305.348C220.987 302.504 219.275 299.864 217.208 297.512C216.516 296.749 215.763 296.043 214.956 295.4C212.925 293.679 210.363 292.707 207.7 292.646C204.262 292.646 201.04 294.392 198.151 297.52C196.673 299.181 195.386 301.003 194.316 302.95C189.399 311.81 186.216 325.648 186.216 341.47C186.216 368.86 195.653 390.295 207.7 390.295C219.746 390.295 229.183 368.86 229.183 341.47C229.273 332.251 228.073 323.064 225.619 314.176C225.459 313.62 225.292 313.073 225.125 312.541ZM207.7 387.914C197.356 387.914 188.603 366.645 188.603 341.47C188.603 328.133 191.054 315.891 194.905 307.333C195.479 306.042 196.122 304.784 196.83 303.562C197.595 302.224 198.471 300.952 199.448 299.759C200.288 298.729 201.247 297.802 202.305 296.996C203.839 295.77 205.734 295.078 207.7 295.027C208.929 295.034 210.14 295.322 211.24 295.869C212.316 296.399 213.308 297.083 214.184 297.901C217.447 300.87 220.319 305.983 222.499 312.501C222.858 313.573 223.2 314.684 223.518 315.835C225.748 324.197 226.85 332.818 226.796 341.47C226.796 366.645 218.044 387.914 207.7 387.914Z" fill="white"/>
<path d="M217.367 323.036C215.06 317.034 211.614 313.287 207.7 313.287C206.435 313.299 205.2 313.674 204.143 314.367C201.262 316.169 198.828 320.13 197.204 325.442C195.691 330.649 194.951 336.049 195.008 341.47C195.008 357.277 200.578 369.654 207.7 369.654C214.821 369.654 220.431 357.277 220.431 341.47C220.478 336.338 219.822 331.223 218.481 326.267C218.123 325.132 217.765 324.052 217.367 323.036ZM207.7 367.272C202.726 367.272 197.395 356.904 197.395 341.47C197.388 338.414 197.614 335.362 198.072 332.341C198.423 330.063 198.955 327.817 199.663 325.624C201.644 319.36 204.732 315.669 207.7 315.669C210.667 315.669 213.898 319.527 215.903 326.045C216.27 327.209 216.578 328.391 216.826 329.586C217.634 333.503 218.029 337.495 218.004 341.494C218.044 356.904 212.673 367.272 207.7 367.272Z" fill="white"/>
<path d="M176.27 427.212H236.742V77.8956H176.27V427.212ZM178.657 80.2773H234.355V424.83H178.657V80.2773Z" fill="white"/>
<path d="M241.517 213.256V215.637H521.999V228.34H241.517V230.721H524.386V213.256H241.517Z" fill="white"/>
<path d="M358.468 73.9499L380.644 65.1535L379.761 62.9464L357.68 71.6793C356.144 69.4326 352.906 65.2011 348.426 62.6606L348.498 62.4463C348.179 62.3431 347.869 62.2716 347.559 62.1922H347.511C346.048 61.4499 344.473 60.9511 342.848 60.7156C338.87 60.1757 335.027 61.5095 331.398 64.5819C327.603 67.8448 325.995 71.33 325.534 74.5215L325.462 74.323L323.871 76.1331C322.707 77.0443 321.718 78.1578 320.951 79.4199V79.4199L308.061 93.8927L310.734 80.7933L299.761 91.9079L298.815 92.8685L300.517 94.5357L301.066 93.9721L306.787 88.1686L304.488 99.4103L303.947 102.07L305.244 100.609L319.097 85.0169L322.805 80.8568L324.714 78.7133L326.839 83.5958L326.998 83.9769L327.3 84.6596L329.743 90.3042L330.833 92.805L327.849 95.1073L325.717 96.7507L319.121 101.848L310.217 108.707L309.19 109.501L310.655 111.39L311.498 110.739L318.818 105.087C319.171 105.926 319.852 106.586 320.704 106.913L335.822 109.382L335.273 114.939C335.022 116.332 335.356 117.767 336.198 118.907C337.039 120.047 338.313 120.791 339.721 120.965L351.577 122.449C351.796 122.474 352.017 122.487 352.237 122.489C354.453 122.484 356.42 121.073 357.131 118.98C357.512 117.893 357.512 116.709 357.131 115.622L353.773 106.095C354.946 105.827 356.028 105.254 356.908 104.436C361.332 100.403 361.149 92.9241 360.385 87.8749H364.897C364.897 87.8749 368.852 77.9432 358.468 73.9499ZM346.668 64.4231C350.455 66.4078 353.439 69.9248 354.999 72.0445L353.59 72.6955L341.257 78.3957C340.408 77.2769 339.371 76.3127 338.193 75.5456C336.98 74.7471 335.633 74.1743 334.215 73.8546C334.899 71.5364 336.546 67.3605 339.904 65.3281C341.95 64.1459 344.384 63.8259 346.668 64.439V64.4231ZM332.958 66.384C334.597 64.905 336.567 63.8381 338.703 63.2719H338.663C334.43 65.8362 332.536 70.941 331.82 73.5133H331.43C330.281 73.5123 329.137 73.6726 328.032 73.9896C328.805 70.9887 330.533 68.3195 332.958 66.384ZM331.43 95.7583C331.271 95.7583 331.112 95.7583 330.953 95.7583L333.785 93.5751L332.457 90.5027C334.374 90.1005 335.85 88.5705 336.18 86.6437C336.51 84.7169 335.627 82.7845 333.952 81.7698C333.585 81.5368 333.186 81.3577 332.767 81.2379C331.481 81.5557 330.237 82.0219 329.059 82.6272L328.733 81.881L328.621 81.6348L326.672 77.1414C328.13 76.3284 329.775 75.9072 331.446 75.9188C333.625 75.9138 335.744 76.6315 337.469 77.9591C338.058 78.3935 338.593 78.8973 339.061 79.4596C339.306 79.7402 339.532 80.0373 339.737 80.3487C339.976 80.7089 340.194 81.0827 340.39 81.4681C340.605 81.9095 340.789 82.3659 340.939 82.8336C342.14 86.6491 340.918 90.8107 337.843 93.3766C336.059 94.9091 333.784 95.7539 331.43 95.7583ZM354.903 116.4C355.226 117.309 355.053 118.32 354.446 119.071C353.839 119.821 352.886 120.205 351.927 120.083L340.063 118.599C339.302 118.503 338.614 118.097 338.162 117.478C337.71 116.859 337.534 116.081 337.676 115.328L338.225 109.771L344.838 110.85C346.201 109.231 347.321 107.424 348.164 105.484C349.181 105.9 350.253 106.167 351.346 106.278L354.903 116.4ZM355.309 102.673C354.665 103.278 353.857 103.678 352.985 103.824H352.946C352.575 103.886 352.199 103.908 351.824 103.888C350.724 103.816 349.645 103.547 348.641 103.094C348.647 102.346 348.321 101.633 347.75 101.149C344.615 98.5052 342.005 96.3855 344.121 94.3134C346.238 92.2413 345.713 89.6056 344.169 87.4938L344.121 87.4383C343.755 86.9214 343.815 86.2166 344.262 85.768C344.71 85.3194 345.416 85.2571 345.936 85.6202L349.158 87.7955L357.974 87.859C358.691 92.4478 359.009 99.3071 355.285 102.705L355.309 102.673Z" fill="white"/>
</svg>
