<svg width="355" height="643" viewBox="0 0 355 643" fill="none" xmlns="http://www.w3.org/2000/svg">
<path d="M93.1705 18.9665C93.1705 18.9665 110.853 28.2638 120.374 16.3633C129.895 4.46279 141.116 15.6195 165.599 19.7103C190.081 23.8011 189.401 7.80981 207.083 15.9914C224.765 24.173 230.206 33.8422 237.347 33.4703" stroke="white" stroke-width="2" stroke-miterlimit="10"/>
<path d="M91.4702 56.5273C91.4702 56.5273 115.953 57.6429 121.394 47.23C126.834 36.817 129.895 39.4203 144.856 47.6019C159.818 55.7835 173.419 50.9489 182.6 45.7424C191.782 40.5359 192.462 40.164 208.443 46.4862" stroke="white" stroke-width="2" stroke-miterlimit="10"/>
<path d="M100.311 78.4691C100.311 78.4691 125.134 88.1383 135.335 78.4691C145.536 68.7999 141.116 71.0313 161.858 72.1469C182.601 73.2626 182.601 54.2962 197.222 58.7589" stroke="white" stroke-width="2" stroke-miterlimit="10"/>
<path d="M239.696 294.995C239.696 294.995 241.879 417.496 151.677 464.95C151.677 464.95 84.0914 390.352 36.0439 384.926L43.8648 373.026C43.8648 373.026 131.122 381.482 158.118 425.462C158.118 425.462 183.593 362.397 191.248 285.453L239.696 294.995Z" fill="black" stroke="white" stroke-width="2" stroke-miterlimit="10"/>
<path d="M48.5509 372.736L25.3942 367.365L24.823 374.495C24.823 374.495 14.8633 393.294 13.0645 412.056C13.0645 412.056 34.7589 395.064 41.9677 386.023C41.9575 386.023 34.259 386.12 48.5509 372.736Z" fill="white"/>
<path d="M195.522 248.423L187.701 294.91L238.707 307.554L238.367 287.1L195.522 248.423Z" fill="white"/>
<path d="M342.847 297.011C342.794 297.422 342.71 297.828 342.595 298.223L343.092 299.57C343.092 299.57 346.258 306.58 347.873 312.831C349.321 318.439 341.691 304.91 340.106 302.069C339.977 301.838 339.889 301.697 339.845 301.604C339.879 301.682 339.953 301.853 340.066 302.102C340.871 303.962 343.466 310.139 344.302 314.996C345.278 320.697 337.233 304.14 337.015 303.694C337.09 303.984 339.515 313.281 339.515 317.052C339.515 320.823 333 305.806 332.819 305.386C332.911 305.736 336.363 318.532 335.319 318.748C334.275 318.964 325.719 294.839 325.719 294.839L326.022 294.583L273.996 224.094L240.764 143.178L258.786 131.497L288.829 212.517L341.575 291.488C341.779 291.789 341.959 292.108 342.116 292.44C345.486 296.68 349.179 301.86 349.529 304.598C349.998 308.261 345.479 301.292 342.847 297.011Z" fill="black" stroke="white" stroke-width="2" stroke-miterlimit="10"/>
<path d="M340.106 302.069L340.066 302.102C339.953 301.853 339.878 301.682 339.844 301.604C339.889 301.678 339.977 301.838 340.106 302.069Z" fill="black" stroke="white" stroke-width="2" stroke-miterlimit="10"/>
<path d="M276.451 266.297L284.272 380.98C284.272 380.98 286.992 559.514 304.351 611.609L294.29 618.336C294.29 618.336 246.249 514.883 252.06 396.027L219.546 276.784L276.451 266.297Z" fill="black" stroke="white" stroke-width="2" stroke-miterlimit="10"/>
<path d="M206.403 185.202C206.403 185.202 172.059 247.68 224.765 303.091C224.765 303.091 251.683 293.497 282.912 285.612L254.689 190.036L206.403 185.202Z" fill="black" stroke="white" stroke-width="2" stroke-miterlimit="10"/>
<path d="M236.128 105.29C239.913 103.205 244.301 102.85 248.326 104.303C252.351 105.756 255.683 108.899 257.59 113.039L271.814 143.929L243.266 159.652L229.042 128.763C227.136 124.622 226.811 119.823 228.14 115.421C229.469 111.019 232.342 107.375 236.128 105.29V105.29Z" fill="white"/>
<path d="M254.689 190.036L206.743 185.202L215.557 119.667C215.768 116.591 216.53 113.59 217.801 110.836C219.072 108.082 220.827 105.629 222.965 103.616C225.103 101.604 227.583 100.072 230.262 99.1079C232.941 98.1437 235.768 97.7663 238.581 97.9971L243.893 98.4322C249.573 98.8981 254.852 101.813 258.568 106.535C262.283 111.257 264.132 117.4 263.707 123.613L254.689 190.036Z" fill="#0364D7"/>
<path d="M255.056 85.7806L248.391 109.336C246.556 109.535 244.703 109.242 242.994 108.483C241.285 107.723 239.77 106.52 238.581 104.978L245.593 81.6675C250.693 57.0185 258.892 56.1111 265.155 62.1506C271.419 68.1901 266.495 84.7616 261.476 86.9186C256.457 89.0755 249.235 80.9683 249.235 80.9683" fill="black"/>
<path d="M255.056 85.7806L248.391 109.336C246.556 109.535 244.703 109.242 242.994 108.483C241.285 107.723 239.77 106.52 238.581 104.978L245.593 81.6675C250.693 57.0185 258.892 56.1111 265.155 62.1506C271.419 68.1901 266.495 84.7616 261.476 86.9186C256.457 89.0755 249.235 80.9683 249.235 80.9683" stroke="white" stroke-width="2" stroke-miterlimit="10"/>
<path d="M263.537 73.6346C263.835 73.6346 264.077 73.3699 264.077 73.0433C264.077 72.7168 263.835 72.452 263.537 72.452C263.238 72.452 262.996 72.7168 262.996 73.0433C262.996 73.3699 263.238 73.6346 263.537 73.6346Z" fill="white"/>
<path d="M254.121 89.1574C254.121 89.1574 249.609 86.4165 249.333 81.0687C249.333 81.0687 253.121 85.0294 254.971 85.6765L254.121 89.1574Z" fill="white"/>
<path d="M234.157 134.074L184.96 202.982L149.991 289.26C149.443 294.467 147.89 307.022 145.397 310.045C142.262 313.85 147.24 296.553 147.359 296.14L144.778 301.425C144.778 301.425 141.905 308.58 138.562 313.95C135.264 319.254 141.14 300.432 141.283 299.967C141.187 300.205 138.113 307.881 134.754 312.351C131.394 316.821 137.814 299.417 137.988 298.963C137.835 299.212 132.887 307.219 130.235 309.64C127.582 312.061 133.938 296.929 134.104 296.535C133.9 296.869 127.168 307.952 126.351 307.215C125.586 306.524 135.264 287.133 136.743 284.18L168.367 194.692L215.924 122.828L234.157 134.074Z" fill="black" stroke="white" stroke-width="2" stroke-miterlimit="10"/>
<path d="M248.515 97.7705C251.927 100.522 254.199 104.643 254.832 109.227C255.465 113.81 254.407 118.481 251.891 122.212L233.121 150.046L207.397 129.297L226.167 101.463C228.683 97.7318 232.451 95.2469 236.642 94.5545C240.833 93.8621 245.104 95.019 248.515 97.7705V97.7705Z" fill="white"/>
<path d="M14.0438 413.238L9.8783 411.613L24.4013 367.079L28.9034 367.8L14.0438 413.238Z" fill="#0364D7"/>
<path d="M288.972 607.964L297.989 631.903L303.692 628.392C303.692 628.392 323.502 626.77 338.689 617.797C338.689 617.797 313.618 607.8 302.723 606.413C302.723 606.413 307.14 613.312 288.972 607.964Z" fill="white"/>
<path d="M339.018 616.254L340.14 620.928L298.333 632.959L296.337 628.485L339.018 616.254Z" fill="#0364D7"/>
<path d="M259.616 58.7774C255.637 58.3795 253.067 59.6513 251.407 61.5034C246.789 60.0418 219.444 53.9726 182.6 99.6668C182.6 99.6668 213.248 108.165 249.333 65.1256C248.708 66.943 248.394 68.8703 248.405 70.8118C255.083 70.6147 258.021 66.6838 259.316 63.374C261.836 66.2636 267.137 71.4886 271.044 69.3503C271.044 69.3614 266.961 57.3902 259.616 58.7774Z" fill="white"/>
<path d="M225.785 302.348L229.393 311.347L278.036 290.313L278.151 287.1L225.785 302.348Z" fill="white"/>
<path d="M190.082 294.91L189.157 304.278L233.436 347.049L235.698 336.796L227.295 303.571L190.082 294.91Z" fill="white"/>
<path d="M210.406 131.203L207.253 136.109L225.071 146.711L227.618 143.796L210.406 131.203Z" fill="white"/>
<path d="M264.461 146.979L264.645 147.414L266.644 152.148L258.28 162.885L260.469 147.641L264.461 146.979Z" fill="white"/>
<path d="M261.489 51.6929C257.161 51.0607 255.443 56.8511 254.774 61.0163C253.063 60.4492 251.232 60.4866 249.541 61.1231C247.85 61.7597 246.386 62.963 245.357 64.5619C244.328 66.1608 243.786 68.074 243.808 70.0292C243.83 71.9845 244.415 73.8823 245.481 75.4528C246.546 77.0234 248.037 78.1866 249.741 78.7772C251.445 79.3677 253.277 79.3555 254.974 78.7422C256.672 78.1289 258.15 76.9458 259.197 75.3612C260.245 73.7765 260.809 71.871 260.809 69.9156C260.812 67.5965 260.02 65.3604 258.589 63.6492C259.364 60.3022 260.513 55.7354 261.149 55.04C262.169 53.9243 262.795 59.4766 262.795 59.4766L266.352 61.4216C266.352 61.4216 266.59 52.4367 261.489 51.6929Z" fill="#0364D7"/>
<path d="M142.136 48.7176C145.892 48.7176 148.937 45.3875 148.937 41.2797C148.937 37.1719 145.892 33.8419 142.136 33.8419C138.38 33.8419 135.335 37.1719 135.335 41.2797C135.335 45.3875 138.38 48.7176 142.136 48.7176Z" fill="white"/>
<path d="M137.715 12.6443L147.236 40.908" stroke="white" stroke-width="2" stroke-miterlimit="10"/>
<path d="M170.359 74.0063C174.115 74.0063 177.16 70.6762 177.16 66.5684C177.16 62.4606 174.115 59.1306 170.359 59.1306C166.603 59.1306 163.559 62.4606 163.559 66.5684C163.559 70.6762 166.603 74.0063 170.359 74.0063Z" fill="white"/>
<path d="M175.46 66.1966L165.939 37.9329L185.151 28.8215L194.672 53.7382" stroke="white" stroke-width="2" stroke-miterlimit="10"/>
<path d="M189.061 63.5935C192.817 63.5935 195.862 60.2635 195.862 56.1557C195.862 52.0479 192.817 48.7179 189.061 48.7179C185.305 48.7179 182.26 52.0479 182.26 56.1557C182.26 60.2635 185.305 63.5935 189.061 63.5935Z" fill="white"/>
<path d="M116.293 39.4205L125.814 67.6843" stroke="white" stroke-width="2" stroke-miterlimit="10"/>
<path d="M120.714 75.4938C124.47 75.4938 127.514 72.1638 127.514 68.056C127.514 63.9482 124.47 60.6182 120.714 60.6182C116.958 60.6182 113.913 63.9482 113.913 68.056C113.913 72.1638 116.958 75.4938 120.714 75.4938Z" fill="black" stroke="white" stroke-width="2" stroke-miterlimit="10"/>
</svg>
