<svg width="35" height="37" viewBox="0 0 35 37" fill="none" xmlns="http://www.w3.org/2000/svg">
<g filter="url(#filter0_d_303_717)">
<path fill-rule="evenodd" clip-rule="evenodd" d="M17.5 28.5C24.9558 28.5 31 22.4558 31 15C31 7.54416 24.9558 1.5 17.5 1.5C10.0442 1.5 4 7.54416 4 15C4 22.4558 10.0442 28.5 17.5 28.5ZM17.9772 11.1794C20.7052 9.85514 22.0692 9.19301 22.7876 9.6837C22.9418 9.789 23.075 9.92216 23.1803 10.0763C23.6709 10.7947 23.0088 12.1587 21.6846 14.8867L21.6846 14.8867C20.9765 16.3454 20.6225 17.0747 20.011 17.2705C19.8744 17.3143 19.7321 17.3382 19.5887 17.3416C19.5035 17.3436 19.4195 17.3353 19.3352 17.3166C19.064 17.8297 18.3414 18.1805 17.0228 18.8206C14.2948 20.1449 12.9308 20.807 12.2124 20.3163C12.0582 20.211 11.925 20.0778 11.8197 19.9237C11.3291 19.2053 11.9912 17.8413 13.3154 15.1133C14.0235 13.6546 14.3775 12.9253 14.989 12.7295C15.1256 12.6857 15.2679 12.6618 15.4113 12.6584C15.4965 12.6564 15.5805 12.6647 15.6648 12.6834C15.936 12.1703 16.6586 11.8195 17.9772 11.1794Z" fill="#FFFFFF"/>
</g>
<defs>
<filter id="filter0_d_303_717" x="-1.5" y="0" width="38" height="38" filterUnits="userSpaceOnUse" color-interpolation-filters="sRGB">
<feFlood flood-opacity="0" result="BackgroundImageFix"/>
<feColorMatrix in="SourceAlpha" type="matrix" values="0 0 0 0 0 0 0 0 0 0 0 0 0 0 0 0 0 0 127 0" result="hardAlpha"/>
<feOffset dy="4"/>
<feGaussianBlur stdDeviation="2"/>
<feComposite in2="hardAlpha" operator="out"/>
<feColorMatrix type="matrix" values="0 0 0 0 0 0 0 0 0 0 0 0 0 0 0 0 0 0 0.25 0"/>
<feBlend mode="normal" in2="BackgroundImageFix" result="effect1_dropShadow_303_717"/>
<feBlend mode="normal" in="SourceGraphic" in2="effect1_dropShadow_303_717" result="shape"/>
</filter>
</defs>
</svg>
