<svg width="60" height="60" viewBox="0 0 60 60" fill="none" xmlns="http://www.w3.org/2000/svg">
<circle cx="30" cy="30" r="30" fill="#0364D7"/>
<path d="M32.136 34.808C31.56 36.472 30.9733 38.072 30.376 39.608C29.7787 41.144 29.2773 42.3067 28.872 43.096C28.488 43.9067 28.1467 44.4613 27.848 44.76C27.5493 45.0587 27.24 45.2613 26.92 45.368C26.6213 45.4747 26.312 45.5173 25.992 45.496C25.6933 45.4747 25.384 45.4533 25.064 45.432C23.272 45.1547 22.7173 43.864 23.4 41.56C23.848 39.7253 24.2107 38.232 24.488 37.08C24.7653 35.9067 24.9893 34.9467 25.16 34.2C25.352 33.432 25.512 32.8027 25.64 32.312C25.768 31.8 25.9067 31.2987 26.056 30.808C26.2053 30.3173 26.3867 29.7627 26.6 29.144C26.8347 28.5253 27.1333 27.704 27.496 26.68C26.6853 26.7867 25.96 26.7013 25.32 26.424C24.3813 26.0187 23.9973 25.144 24.168 23.8C24.2533 23.1813 24.584 22.6053 25.16 22.072C25.4587 21.7947 25.8107 21.496 26.216 21.176C27.048 20.5147 28.7013 19.8107 31.176 19.064C33.736 18.296 35.9333 17.9333 37.768 17.976C38.2587 17.8907 38.76 17.9547 39.272 18.168C39.8053 18.36 40.232 18.6267 40.552 18.968C40.872 19.3093 41.032 19.6827 41.032 20.088C41.0533 20.4933 40.7973 20.856 40.264 21.176C40.008 21.3467 39.8267 21.6347 39.72 22.04C39.6133 22.424 39.496 22.84 39.368 23.288C39.24 23.7147 39.048 24.1093 38.792 24.472C38.5573 24.8347 38.1733 25.048 37.64 25.112C37.3627 25.2613 36.968 25.368 36.456 25.432C35.9653 25.496 35.6347 25.5493 35.464 25.592C35.3147 25.6133 35.2293 25.6667 35.208 25.752C34.824 26.8827 34.3653 28.2587 33.832 29.88C33.2987 31.48 32.7333 33.1227 32.136 34.808ZM27.816 26.328C27.7733 26.328 27.752 26.3387 27.752 26.36C27.752 26.36 27.7733 26.36 27.816 26.36V26.328Z" fill="black"/>
</svg>
